<?xml version="1.0" encoding="utf-8"?>
<!-- Generator: Adobe Illustrator 16.0.0, SVG Export Plug-In . SVG Version: 6.00 Build 0)  -->
<!DOCTYPE svg PUBLIC "-//W3C//DTD SVG 1.1//EN" "http://www.w3.org/Graphics/SVG/1.1/DTD/svg11.dtd">
<svg version="1.1" id="Layer_1" xmlns="http://www.w3.org/2000/svg" xmlns:xlink="http://www.w3.org/1999/xlink" x="0px" y="0px"
	 width="44px" height="42.4px" viewBox="0 0 44 42.4" enable-background="new 0 0 44 42.4" xml:space="preserve">
<g>
	<g>
		<path fill="#FFFFFF" d="M31.949,8c-0.699,0-1.399,0.1-2,0.199C27.25,3.3,21.95,0,15.95,0c-8.8,0-16,7.199-16,16
			c0,6,3.3,11.2,8.2,13.899c0.3-1.299,0.9-2.5,1.9-3.398l0.1-0.102c-3.6-2.1-6.1-6-6.1-10.399c0-6.601,5.4-12,12-12
			c5.7,0,10.399,4,11.7,9.3c1.3-0.8,2.699-1.3,4.3-1.3c4.399,0,8,3.6,8,8c0,3.399-2.2,6.399-5.2,7.5c0.801,1.1,1.2,2.5,1.2,3.799
			c4.7-1.6,8-6.1,8-11.299C43.949,13.4,38.65,8,31.949,8z M14.95,27.3l-2.1,2.1c-1.2,1.201-1.2,3.102,0,4.201
			c1.2,1.199,3.1,1.199,4.2,0c1.2-1.201,1.2-3.1,0-4.201L14.95,27.3z M21.95,35.2l-2.1,2.1c-1.2,1.201-1.2,3.1,0,4.201
			c1.2,1.199,3.1,1.199,4.2,0c1.2-1.201,1.2-3.102,0-4.201L21.95,35.2z M28.949,27.3l-2.1,2.1c-1.199,1.201-1.199,3.102,0,4.201
			c1.2,1.199,3.1,1.199,4.2,0c1.2-1.201,1.2-3.1,0-4.201L28.949,27.3z"/>
	</g>
</g>
</svg>
