<?xml version="1.0" encoding="utf-8"?>
<!-- Generator: Adobe Illustrator 16.0.0, SVG Export Plug-In . SVG Version: 6.00 Build 0)  -->
<!DOCTYPE svg PUBLIC "-//W3C//DTD SVG 1.1//EN" "http://www.w3.org/Graphics/SVG/1.1/DTD/svg11.dtd">
<svg version="1.1" id="Layer_1" xmlns="http://www.w3.org/2000/svg" xmlns:xlink="http://www.w3.org/1999/xlink" x="0px" y="0px"
	 width="44px" height="32px" viewBox="0 0 44 32" enable-background="new 0 0 44 32" xml:space="preserve">
<path fill="#FFFFFF" d="M16,32C7.2,32,0,24.801,0,16C0,7.2,7.2,0,16,0c6,0,11.2,3.301,14,8.2c0.7-0.1,1.301-0.2,2-0.2
	c6.6,0,12,5.4,12,12c0,6.601-5.4,12-12,12C29.301,32,19.2,32,16,32z M32,28c4.4,0,8-3.6,8-8c0-4.399-3.6-8-8-8
	c-1.6,0-3.1,0.5-4.3,1.301C26.5,8,21.7,4,16,4C9.4,4,4,9.4,4,16c0,6.601,5.4,12,12,12C19.7,28,29,28,32,28z"/>
</svg>
