<?xml version="1.0" encoding="utf-8"?>
<!-- Generator: Adobe Illustrator 16.0.0, SVG Export Plug-In . SVG Version: 6.00 Build 0)  -->
<!DOCTYPE svg PUBLIC "-//W3C//DTD SVG 1.1//EN" "http://www.w3.org/Graphics/SVG/1.1/DTD/svg11.dtd">
<svg version="1.1" id="Layer_1" xmlns="http://www.w3.org/2000/svg" xmlns:xlink="http://www.w3.org/1999/xlink" x="0px" y="0px"
	 width="44px" height="40px" viewBox="0 0 44 40" enable-background="new 0 0 44 40" xml:space="preserve">
<path fill="#FFFFFF" d="M42,32H2c-1.1,0-2-0.899-2-2c0-1.1,0.9-2,2-2h40c1.1,0,2,0.9,2,2C44,31.101,43.1,32,42,32z M42,24H2
	c-1.1,0-2-0.899-2-2c0-1.1,0.9-2,2-2h40c1.1,0,2,0.9,2,2C44,23.101,43.1,24,42,24z M32,12c-1.6,0-3.1,0.5-4.3,1.301
	C26.5,8,21.7,4,16,4C9.4,4,4,9.4,4,16H0C0,7.2,7.2,0,16,0c6,0,11.2,3.301,14,8.2c0.7-0.1,1.3-0.2,2-0.2c5.2,0,9.7,3.301,11.3,8H38.9
	C37.5,13.7,35,12,32,12z M2,36h40c1.1,0,2,0.9,2,2c0,1.101-0.9,2-2,2H2c-1.1,0-2-0.899-2-2C0,36.9,0.9,36,2,36z"/>
</svg>
