<?xml version="1.0" encoding="utf-8"?>
<!-- Generator: Adobe Illustrator 16.0.0, SVG Export Plug-In . SVG Version: 6.00 Build 0)  -->
<!DOCTYPE svg PUBLIC "-//W3C//DTD SVG 1.1//EN" "http://www.w3.org/Graphics/SVG/1.1/DTD/svg11.dtd">
<svg version="1.1" id="Layer_1" xmlns="http://www.w3.org/2000/svg" xmlns:xlink="http://www.w3.org/1999/xlink" x="0px" y="0px"
	 width="54px" height="48px" viewBox="0 0 54 48" enable-background="new 0 0 54 48" xml:space="preserve">
<path fill="#FFFFFF" d="M52,26h-4c-1.1,0-2-0.899-2-2c0-1.1,0.9-2,2-2h4c1.101,0,2,0.9,2,2C54,25.101,53.101,26,52,26z M44.201,12.7
	c-0.801,0.8-2,0.8-2.801,0c-0.8-0.8-0.8-2,0-2.8l2.801-2.8c0.799-0.8,2-0.8,2.799,0c0.801,0.8,0.801,2,0,2.8L44.201,12.7z
	 M41.201,28.301L41.201,28.301C42.9,30.4,44,33.101,44,36c0,6.601-5.399,12-12,12c-2.799,0-12.799,0-16,0c-8.8,0-16-7.199-16-16
	c0-8.8,7.2-16,16-16c1.6,0,3.1,0.2,4.5,0.7c2.2-2.8,5.6-4.7,9.5-4.7c6.601,0,12,5.4,12,12C42,25.601,41.701,27,41.201,28.301z M4,32
	c0,6.601,5.4,12,12,12c3.6,0,13,0,16,0c4.4,0,8-3.6,8-8c0-4.399-3.6-8-8-8c-1.6,0-3.1,0.5-4.299,1.301C26.5,24,21.701,20,16,20
	C9.4,20,4,25.4,4,32z M30,16c-2.199,0-4.199,0.9-5.699,2.301c2.3,1.399,4.3,3.5,5.6,5.899c0.7-0.1,1.301-0.2,2-0.2
	c2.1,0,4.1,0.601,5.801,1.5l0,0c0.1-0.5,0.199-1,0.199-1.5C38,19.601,34.5,16,30,16z M30,8c-1.1,0-2-0.899-2-2V2c0-1.1,0.9-2,2-2
	c1.101,0,2,0.9,2,2v4C32,7.101,31.101,8,30,8z M15.9,12.7l-2.8-2.8c-0.8-0.8-0.8-2,0-2.8s2-0.8,2.8,0l2.8,2.8c0.8,0.8,0.8,2,0,2.8
	C18,13.5,16.701,13.5,15.9,12.7z"/>
</svg>
