<?xml version="1.0" encoding="utf-8"?>
<!-- Generator: Adobe Illustrator 16.0.0, SVG Export Plug-In . SVG Version: 6.00 Build 0)  -->
<!DOCTYPE svg PUBLIC "-//W3C//DTD SVG 1.1//EN" "http://www.w3.org/Graphics/SVG/1.1/DTD/svg11.dtd">
<svg version="1.1" id="Layer_1" xmlns="http://www.w3.org/2000/svg" xmlns:xlink="http://www.w3.org/1999/xlink" x="0px" y="0px"
	 width="44px" height="44px" viewBox="0 0 44 44" enable-background="new 0 0 44 44" xml:space="preserve">
<path fill="#FFFFFF" d="M32,32c-0.3,0-0.6,0-1.1,0l3.6-4.399C37.7,26.5,40,23.5,40,20c0-4.399-3.6-8-8-8c-1.6,0-3.1,0.5-4.3,1.301
	C26.5,8,21.7,4,16,4C9.4,4,4,9.4,4,16c0,5.4,3.6,10,8.6,11.5l-1.3,3.801C4.8,29.301,0,23.2,0,16C0,7.2,7.2,0,16,0
	c6,0,11.2,3.301,14,8.2c0.7-0.1,1.3-0.2,2-0.2c6.6,0,12,5.4,12,12C44,26.7,38.6,32,32,32z M20,18h10l-6,10h7L18,44l3.6-12H15L20,18z
	"/>
</svg>
