<?xml version="1.0" encoding="utf-8"?>
<!-- Generator: Adobe Illustrator 16.0.0, SVG Export Plug-In . SVG Version: 6.00 Build 0)  -->
<!DOCTYPE svg PUBLIC "-//W3C//DTD SVG 1.1//EN" "http://www.w3.org/Graphics/SVG/1.1/DTD/svg11.dtd">
<svg version="1.1" id="Layer_1" xmlns="http://www.w3.org/2000/svg" xmlns:xlink="http://www.w3.org/1999/xlink" x="0px" y="0px"
	 width="54px" height="58.4px" viewBox="0 0 54 58.4" enable-background="new 0 0 54 58.4" xml:space="preserve">
<path fill="#FFFFFF" d="M52.051,26h-4c-1.101,0-2-0.9-2-2c0-1.101,0.899-2,2-2h4c1.1,0,2,0.899,2,2C54.051,25.1,53.15,26,52.051,26z
	 M44.25,12.699c-0.8,0.801-2,0.801-2.8,0c-0.8-0.8-0.8-2,0-2.8l2.8-2.8c0.801-0.8,2-0.8,2.801,0c0.8,0.8,0.8,2,0,2.8L44.25,12.699z
	 M41.25,28.3L41.25,28.3c1.7,2.099,2.801,4.8,2.801,7.701l0,0c0,5.199-3.301,9.699-8,11.299c0-1.299-0.4-2.699-1.2-3.799
	c3.1-1.102,5.2-4.102,5.2-7.5c0-4.4-3.601-8-8-8c-1.601,0-3.101,0.5-4.301,1.3c-1.2-5.3-6-9.3-11.7-9.3c-6.6,0-12,5.399-12,12
	c0,1.398,0.3,2.699,0.7,4l0,0c1,2.699,2.9,5,5.4,6.398l-0.1,0.102c-1,1-1.6,2.199-1.9,3.398c-3.8-2.1-6.6-5.699-7.7-9.898l0,0
	c-0.3-1.301-0.5-2.602-0.5-4c0-8.801,7.2-16,16-16c1.6,0,3.1,0.199,4.5,0.699c2.2-2.8,5.6-4.699,9.5-4.699c6.601,0,12,5.399,12,12
	C42.051,25.6,41.75,27,41.25,28.3z M30.051,16c-2.2,0-4.2,0.899-5.7,2.3c2.3,1.399,4.3,3.5,5.6,5.899c0.7-0.1,1.3-0.199,2-0.199
	c2.101,0,4.101,0.6,5.9,1.5l0,0c0.1-0.5,0.1-1,0.1-1.5C38.051,19.6,34.551,16,30.051,16z M30.051,8c-1.101,0-2-0.9-2-2V2
	c0-1.101,0.899-2,2-2c1.1,0,2,0.899,2,2v4C32.051,7.1,31.15,8,30.051,8z M15.95,12.699l-2.8-2.8c-0.8-0.8-0.8-2,0-2.8s2-0.8,2.8,0
	l2.8,2.8c0.8,0.8,0.8,2,0,2.8C18.05,13.5,16.75,13.5,15.95,12.699z M15.05,43.3l2.1,2.1c1.2,1.201,1.2,3.102,0,4.201
	c-1.2,1.199-3.1,1.199-4.2,0c-1.2-1.201-1.2-3.1,0-4.201L15.05,43.3z M22.05,51.2l2.1,2.1c1.2,1.201,1.2,3.1,0,4.201
	c-1.2,1.199-3.1,1.199-4.2,0c-1.2-1.201-1.2-3.102,0-4.201L22.05,51.2z M29.051,43.3l2.1,2.1c1.2,1.201,1.2,3.102,0,4.201
	c-1.2,1.199-3.1,1.199-4.2,0c-1.2-1.201-1.2-3.1,0-4.201L29.051,43.3z"/>
</svg>
