<?xml version="1.0" encoding="utf-8"?>
<!-- Generator: Adobe Illustrator 16.0.0, SVG Export Plug-In . SVG Version: 6.00 Build 0)  -->
<!DOCTYPE svg PUBLIC "-//W3C//DTD SVG 1.1//EN" "http://www.w3.org/Graphics/SVG/1.1/DTD/svg11.dtd">
<svg version="1.1" id="Layer_1" xmlns="http://www.w3.org/2000/svg" xmlns:xlink="http://www.w3.org/1999/xlink" x="0px" y="0px"
	 width="44px" height="40px" viewBox="0 0 44 40" enable-background="new 0 0 44 40" xml:space="preserve">
<path fill="#FFFFFF" d="M36,31.301v-4.4c2.4-1.4,4-4,4-6.9c0-4.399-3.6-8-8-8c-1.6,0-3.1,0.5-4.299,1.301C26.5,8,21.701,4,16,4
	C9.4,4,4,9.4,4,16c0,3.5,1.6,6.7,4,8.9v4.9C3.201,27,0,21.9,0,16c0-8.8,7.2-16,16-16c6,0,11.201,3.301,14,8.2
	c0.701-0.1,1.301-0.2,2-0.2c6.601,0,12,5.4,12,12C44,25.301,40.701,29.7,36,31.301z M14,24c1.1,0,2,0.9,2,2c0,1.101-0.9,2-2,2
	s-2-0.899-2-2C12,24.9,12.9,24,14,24z M14,32c1.1,0,2,0.9,2,2c0,1.101-0.9,2-2,2s-2-0.899-2-2C12,32.9,12.9,32,14,32z M22,28
	c1.1,0,2,0.9,2,2c0,1.101-0.899,2-2,2s-2-0.899-2-2C20,28.9,20.9,28,22,28z M22,36c1.1,0,2,0.9,2,2c0,1.101-0.899,2-2,2
	s-2-0.899-2-2C20,36.9,20.9,36,22,36z M30,24c1.101,0,2,0.9,2,2c0,1.101-0.899,2-2,2c-1.1,0-2-0.899-2-2C28,24.9,28.9,24,30,24z
	 M30,32c1.101,0,2,0.9,2,2c0,1.101-0.899,2-2,2c-1.1,0-2-0.899-2-2C28,32.9,28.9,32,30,32z"/>
</svg>
